<svg width="45" height="45" viewBox="0 0 45 45" fill="none" xmlns="http://www.w3.org/2000/svg">
<path fill-rule="evenodd" clip-rule="evenodd" d="M5 0C2.23858 0 0 2.23858 0 5V40C0 42.7614 2.23858 45 5 45H40C42.7614 45 45 42.7614 45 40V5C45 2.23858 42.7614 0 40 0H5ZM24.7175 26.8526C25.8872 28.0159 27.4784 28.6866 29.15 28.7213C30.6447 28.7219 32.0894 28.1965 33.2176 27.2419C33.3756 27.1119 33.5686 27.0287 33.7737 27.0021C33.9788 26.9755 34.1874 27.0066 34.3749 27.0918C34.5624 27.177 34.7209 27.3127 34.8317 27.4829C34.9424 27.653 35.0009 27.8504 35 28.0519V33.8906C35 34.4501 34.7717 34.9866 34.3654 35.3822C33.9591 35.7778 33.408 36 32.8333 36H11.1667C10.592 36 10.0409 35.7778 9.6346 35.3822C9.22827 34.9866 9 34.4501 9 33.8906V11.1094C9 10.5499 9.22827 10.0134 9.6346 9.61782C10.0409 9.22224 10.592 9 11.1667 9H32.8333C33.408 9 33.9591 9.22224 34.3654 9.61782C34.7717 10.0134 35 10.5499 35 11.1094V16.9481C35.0009 17.1496 34.9424 17.347 34.8317 17.5171C34.7209 17.6873 34.5624 17.823 34.3749 17.9082C34.1874 17.9934 33.9788 18.0245 33.7737 17.9979C33.5686 17.9713 33.3756 17.8881 33.2176 17.7581C32.0898 16.8025 30.6451 16.2761 29.15 16.2759C27.4784 16.3105 25.8872 16.9813 24.7175 18.1445C23.5478 19.3077 22.8928 20.8708 22.8928 22.4986C22.8928 24.1264 23.5478 25.6894 24.7175 26.8526Z" fill="#F5F4ED"/>
</svg>
