<svg width="45" height="45" viewBox="0 0 45 45" fill="none" xmlns="http://www.w3.org/2000/svg">
<path fill-rule="evenodd" clip-rule="evenodd" d="M5 0C2.23857 0 0 2.23853 0 5V40C0 42.7615 2.23857 45 5 45H40C42.7614 45 45 42.7615 45 40V5C45 2.23853 42.7614 0 40 0H5ZM31.5927 8.59204V27.3057L31.6459 27.2307C31.6459 28.7205 31.4646 30.0823 31.1384 31.2991C30.8097 32.5159 30.3022 33.532 29.576 34.3877C28.8667 35.2407 27.9399 35.8762 26.7956 36.3306C25.6537 36.7656 24.2545 37.0012 22.5834 37.0012C21.5502 37.0012 20.5498 36.873 19.5698 36.6387C18.5971 36.4019 17.7198 36.0393 16.9453 35.5488C16.1707 35.04 15.5219 34.4045 15.0095 33.624C14.4996 32.8433 14.2 31.9165 14.119 30.8447H16.665C16.793 31.6084 17.0468 32.2439 17.4286 32.7695C17.8105 33.2976 18.2817 33.6965 18.8098 34.0239C19.3547 34.332 19.9516 34.5676 20.6065 34.7126C21.2602 34.8577 21.9321 34.9314 22.6233 34.9314C24.9457 34.9314 26.618 34.2583 27.633 32.9521C28.6516 31.6252 29.1603 29.7368 29.1603 27.2668V24.5071H29.0866C28.5054 25.7783 27.6523 26.7957 26.5262 27.5581C25.4 28.3206 24.0926 28.7012 22.5846 28.7012C20.9509 28.7012 19.5517 28.4292 18.3905 27.9023C17.2268 27.3757 16.2831 26.6301 15.5207 25.6875C14.7582 24.7378 14.2133 23.6274 13.8677 22.3501C13.5245 21.0742 13.3541 19.7124 13.3541 18.2637C13.3541 16.8691 13.5595 15.5496 13.9655 14.2966C14.3728 13.0459 14.966 11.9548 15.7418 11.0208C16.5175 10.0867 17.4794 9.34961 18.6237 8.80957C19.7668 8.27197 21.0838 8 22.5459 8C23.3084 8 24.0177 8.10864 24.6859 8.31299C25.3589 8.52441 25.9583 8.82275 26.5213 9.20239C27.0832 9.58545 27.575 10.0264 28.01 10.5242C28.4462 11.0269 28.7725 11.5537 29.0274 12.1035H29.1048V8.59204H31.5927ZM19.5541 25.9426C20.3842 26.3987 21.3725 26.6274 22.5097 26.6326C23.5826 26.6274 24.5153 26.3987 25.3227 25.9426C26.1407 25.4834 26.8125 24.8767 27.3744 24.1265C27.9375 23.376 28.3556 22.5168 28.6287 21.5417C28.9005 20.5679 29.0455 19.5698 29.0455 18.5403C29.0455 17.5422 28.9368 16.5393 28.7012 15.5413C28.4643 14.5432 28.0837 13.6345 27.5569 12.8164C27.03 12.0007 26.3401 11.3435 25.5232 10.842C24.6871 10.3442 23.689 10.0916 22.5085 10.0916C21.3279 10.0916 20.3105 10.3369 19.4755 10.8228C18.6406 11.3083 17.9325 11.9487 17.3875 12.7366C16.8414 13.5256 16.4426 14.4282 16.1889 15.4434C15.952 16.4558 15.8252 17.4878 15.8252 18.5403C15.8252 19.5686 15.9545 20.5667 16.2263 21.5417C16.4982 22.5168 16.897 23.376 17.4612 24.1265C18.011 24.8767 18.7119 25.4834 19.5541 25.9426Z" fill="#F5F4ED"/>
</svg>
